#N canvas 25 23 1415 855 10;
#X declare -lib mrpeach;
#X obj 147 24 pddp/dsp;
#X obj 147 67 adc~;
#X obj -52 972 import mrpeach;
#X msg -42 1038 connect 10.10.10.201 7331;
#X msg -32 1066 disconnect;
#X obj 100 1194 udpsend;
#X obj 130 1161 packOSC;
#X obj -52 949 loadbang;
#X msg -52 1011 connect 10.10.11.229 7331;
#X obj -52 929 bng 15 250 50 0 empty empty empty 17 7 0 10 -262144
-1 -1;
#X msg 130 1139 sendtyped /rgb fff \$1 \$2 \$3;
#X obj 130 1115 pack f f f;
#X floatatom 147 307 5 0 0 0 - - -;
#X obj 350 247 dbtopow;
#X obj 539 247 dbtopow;
#X floatatom 540 674 5 0 0 0 - - -;
#X obj 539 193 hip~ 4000;
#X obj 147 131 +~;
#X obj 147 248 dbtopow;
#X obj 147 105 *~ 127;
#X obj 186 104 *~ 127;
#X obj 190 344 > 1;
#X obj 157 447 spigot;
#X floatatom 145 992 5 0 0 0 - - -;
#X floatatom 240 1031 5 0 0 0 - - -;
#X floatatom 283 1030 5 0 0 0 - - -;
#X obj 349 859 -;
#X obj 349 883 -;
#X floatatom 157 572 5 0 0 0 - - -;
#X obj 157 547 *;
#X obj 198 533 vsl 15 30 0 2 0 0 empty empty empty 0 -9 0 10 -262144
-1 -1 1450 1;
#X obj 230 344 < 1;
#X obj 235 443 spigot;
#X obj 236 391 metro 10;
#X obj 234 368 loadbang;
#X obj 274 349 bng 15 250 50 0 empty empty empty 17 7 0 10 -262144
-1 -1;
#X obj 147 198 lop~ 250;
#X obj 350 198 bp~ 1000 2;
#X obj 573 726 > 1;
#X obj 540 826 spigot;
#X obj 539 853 - 1;
#X floatatom 544 909 5 0 0 0 - - -;
#X obj 539 881 *;
#X obj 600 857 vsl 15 30 0 2 0 0 empty empty empty 0 -9 0 10 -262144
-1 -1 2900 1;
#X obj 603 725 < 1;
#X obj 604 824 spigot;
#X obj 604 772 metro 10;
#X obj 604 749 loadbang;
#X obj 649 690 bng 15 250 50 0 empty empty empty 17 7 0 10 -262144
-1 -1;
#X msg 604 801 1;
#X floatatom 141 1081 5 0 0 0 - - -;
#X obj 147 279 * 3;
#X obj 350 271 * 1;
#X obj 539 275 * 2;
#X obj 147 223 env~ 4196;
#X obj 350 223 env~ 4196;
#X obj 539 218 env~ 4196;
#X msg 237 420 0;
#X obj 157 525 - 1;
#X obj 539 636 -;
#X obj 199 482 loadbang;
#X obj 703 815 loadbang;
#X msg 703 838 2;
#X msg 198 506 1;
#X floatatom 399 1031 5 0 0 0 - - -;
#X obj 142 1036 history 60;
#X obj 190 1077 history 60;
#X obj 272 1077 history 60;
#X connect 1 0 19 0;
#X connect 1 1 20 0;
#X connect 3 0 5 0;
#X connect 4 0 5 0;
#X connect 6 0 5 0;
#X connect 7 0 2 0;
#X connect 7 0 3 0;
#X connect 8 0 5 0;
#X connect 9 0 7 0;
#X connect 10 0 6 0;
#X connect 11 0 10 0;
#X connect 12 0 21 0;
#X connect 12 0 22 0;
#X connect 12 0 23 0;
#X connect 12 0 31 0;
#X connect 13 0 52 0;
#X connect 14 0 53 0;
#X connect 15 0 38 0;
#X connect 15 0 44 0;
#X connect 15 0 39 0;
#X connect 15 0 25 0;
#X connect 16 0 56 0;
#X connect 17 0 16 0;
#X connect 17 0 36 0;
#X connect 17 0 37 0;
#X connect 18 0 51 0;
#X connect 19 0 17 0;
#X connect 20 0 17 1;
#X connect 21 0 22 1;
#X connect 22 0 58 0;
#X connect 23 0 65 0;
#X connect 24 0 66 0;
#X connect 25 0 67 0;
#X connect 26 0 27 0;
#X connect 27 0 24 0;
#X connect 28 0 26 1;
#X connect 28 0 59 1;
#X connect 29 0 28 0;
#X connect 30 0 29 1;
#X connect 31 0 32 1;
#X connect 32 0 29 0;
#X connect 33 0 57 0;
#X connect 34 0 33 0;
#X connect 35 0 34 0;
#X connect 36 0 54 0;
#X connect 37 0 55 0;
#X connect 38 0 39 1;
#X connect 39 0 40 0;
#X connect 40 0 42 0;
#X connect 41 0 27 1;
#X connect 42 0 41 0;
#X connect 43 0 42 1;
#X connect 44 0 45 1;
#X connect 45 0 40 0;
#X connect 46 0 49 0;
#X connect 47 0 46 0;
#X connect 48 0 47 0;
#X connect 49 0 45 0;
#X connect 50 0 11 0;
#X connect 51 0 12 0;
#X connect 52 0 26 0;
#X connect 53 0 59 0;
#X connect 54 0 18 0;
#X connect 55 0 13 0;
#X connect 56 0 14 0;
#X connect 57 0 32 0;
#X connect 58 0 29 0;
#X connect 59 0 15 0;
#X connect 60 0 63 0;
#X connect 61 0 62 0;
#X connect 62 0 43 0;
#X connect 63 0 30 0;
#X connect 64 0 65 1;
#X connect 64 0 66 1;
#X connect 64 0 67 1;
#X connect 65 0 50 0;
#X connect 66 0 11 1;
#X connect 67 0 11 2;
