#N canvas 255 45 707 855 10;
#X declare -lib mrpeach;
#X obj 47 24 pddp/dsp;
#X obj 47 67 adc~;
#X obj 183 247 dbtopow;
#X obj 320 247 dbtopow;
#X obj 320 193 hip~ 4000;
#X obj 47 131 +~;
#X obj 47 248 dbtopow;
#X obj 47 105 *~ 127;
#X obj 86 104 *~ 127;
#X obj 47 198 lop~ 250;
#X obj 183 198 bp~ 1000 2;
#X floatatom 47 669 5 0 0 0 - - -;
#X obj 47 279 * 3;
#X obj 183 271 * 1;
#X obj 320 275 * 2;
#X obj 47 223 env~ 4196;
#X obj 183 223 env~ 4196;
#X obj 320 218 env~ 4196;
#X obj 47 567 history 60;
#X obj 118 567 history 60;
#X obj 190 567 history 60;
#X obj 449 85 adc~;
#X obj 458 229 dac~ 1 2 3 4;
#X obj 508 56 knob 32 32 0 100 0 0 empty empty empty 0 -8 0 8 -262144
-1 -1 2200 1;
#X obj 447 122 *~ 1;
#X obj 532 121 *~ 1;
#X floatatom 580 61 5 0 0 0 - - -;
#X obj 578 89 * 441;
#X obj 139 49 knob 32 32 0 100 0 0 empty empty empty 0 -8 0 8 -262144
-1 -1 200 1;
#X obj 532 144 delay~ 11025;
#X obj 447 144 delay~ 11025;
#X floatatom 153 104 5 0 0 0 - - -;
#X obj 47 704 sendtopi;
#X floatatom 118 669 5 0 0 0 - - -;
#X floatatom 190 668 5 0 0 0 - - -;
#X floatatom 295 540 5 0 0 0 - - -;
#X obj 190 594 iirfilter;
#X obj 118 592 iirfilter;
#X obj 47 592 iirfilter;
#X obj 294 586 vsl 15 80 0 1 0 0 empty empty empty 0 -9 0 10 -262144
-1 -1 6700 1;
#X obj 47 542 clip 0 1;
#X obj 190 541 clip 0 1;
#X obj 118 541 clip 0 1;
#X obj 47 315 prettypeak;
#X connect 1 0 7 0;
#X connect 1 1 8 0;
#X connect 2 0 13 0;
#X connect 3 0 14 0;
#X connect 4 0 17 0;
#X connect 5 0 4 0;
#X connect 5 0 9 0;
#X connect 5 0 10 0;
#X connect 6 0 12 0;
#X connect 7 0 5 0;
#X connect 8 0 5 1;
#X connect 9 0 15 0;
#X connect 10 0 16 0;
#X connect 11 0 32 0;
#X connect 12 0 43 0;
#X connect 13 0 43 1;
#X connect 14 0 43 2;
#X connect 15 0 6 0;
#X connect 16 0 2 0;
#X connect 17 0 3 0;
#X connect 18 0 38 0;
#X connect 19 0 37 0;
#X connect 20 0 36 0;
#X connect 21 0 24 0;
#X connect 21 1 25 0;
#X connect 23 0 24 1;
#X connect 23 0 25 1;
#X connect 24 0 30 0;
#X connect 25 0 29 0;
#X connect 26 0 27 0;
#X connect 27 0 29 1;
#X connect 27 0 30 1;
#X connect 28 0 7 1;
#X connect 28 0 8 1;
#X connect 28 0 31 0;
#X connect 29 0 22 2;
#X connect 30 0 22 3;
#X connect 33 0 32 1;
#X connect 34 0 32 2;
#X connect 35 0 20 1;
#X connect 35 0 19 1;
#X connect 35 0 18 1;
#X connect 36 0 34 0;
#X connect 37 0 33 0;
#X connect 38 0 11 0;
#X connect 39 0 38 1;
#X connect 39 0 37 1;
#X connect 39 0 36 1;
#X connect 40 0 18 0;
#X connect 41 0 20 0;
#X connect 42 0 19 0;
#X connect 43 0 40 0;
#X connect 43 1 42 0;
#X connect 43 2 41 0;
