#N canvas 209 42 1276 703 10;
#X declare -lib mrpeach;
#X obj 147 24 pddp/dsp;
#X obj 147 67 adc~;
#X obj -52 972 import mrpeach;
#X msg -32 1066 disconnect;
#X obj 100 1194 udpsend;
#X obj 130 1161 packOSC;
#X obj -52 949 loadbang;
#X obj -52 929 bng 15 250 50 0 empty empty empty 17 7 0 10 -262144
-1 -1;
#X msg 130 1139 sendtyped /rgb fff \$1 \$2 \$3;
#X obj 130 1115 pack f f f;
#X floatatom 147 307 5 0 0 0 - - -;
#X obj 350 247 dbtopow;
#X obj 539 247 dbtopow;
#X floatatom 551 582 5 0 0 0 - - -;
#X obj 539 193 hip~ 4000;
#X obj 147 131 +~;
#X obj 147 248 dbtopow;
#X obj 147 105 *~ 127;
#X obj 186 104 *~ 127;
#X floatatom 145 992 5 0 0 0 - - -;
#X floatatom 240 1031 5 0 0 0 - - -;
#X floatatom 283 1030 5 0 0 0 - - -;
#X obj 349 859 -;
#X obj 349 883 -;
#X floatatom 164 428 5 0 0 0 - - -;
#X obj 164 403 *;
#X obj 239 364 vsl 15 30 0 2 0 0 empty empty empty 0 -9 0 10 -262144
-1 -1 1450 1;
#X obj 147 198 lop~ 250;
#X obj 350 198 bp~ 1000 2;
#X floatatom 141 1081 5 0 0 0 - - -;
#X obj 147 279 * 3;
#X obj 350 271 * 1;
#X obj 539 275 * 2;
#X obj 147 223 env~ 4196;
#X obj 350 223 env~ 4196;
#X obj 539 218 env~ 4196;
#X obj 164 339 - 1;
#X obj 550 544 -;
#X obj 240 313 loadbang;
#X msg 239 337 1;
#X floatatom 399 1031 5 0 0 0 - - -;
#X obj 142 1036 history 60;
#X obj 190 1077 history 60;
#X obj 272 1077 history 60;
#X obj 679 45 adc~;
#X obj 688 189 dac~ 1 2 3 4;
#X obj 787 10 knob 32 32 0 100 0 0 empty empty empty 0 -8 0 8 -262144
-1 -1 0 1;
#X obj 679 79 *~ 1;
#X obj 772 72 *~ 1;
#X floatatom 917 39 5 0 0 0 - - -;
#X obj 872 72 * 441;
#X msg -52 1011 connect 10.10.11.201 7331;
#X obj 164 377 max;
#X msg 198 340 0;
#X floatatom 546 723 5 0 0 0 - - -;
#X obj 546 698 *;
#X obj 621 659 vsl 15 30 0 2 0 0 empty empty empty 0 -9 0 10 -262144
-1 -1 1450 1;
#X obj 546 634 - 1;
#X obj 622 608 loadbang;
#X msg 621 632 1;
#X obj 546 672 max;
#X msg 580 635 0;
#X obj 239 49 knob 32 32 0 10 0 0 empty empty empty 0 -8 0 8 -262144
-1 -1 0 1;
#X floatatom 161 526 5 0 0 0 - - -;
#X obj 163 451 iirfilter;
#X obj 533 770 iirfilter;
#X floatatom 534 840 5 0 0 0 - - -;
#X obj 769 108 delay~ 11025;
#X obj 677 104 delay~ 11025;
#X floatatom 253 104 5 0 0 0 - - -;
#X msg -42 1038 connect 10.10.10.200 7331;
#X connect 1 0 17 0;
#X connect 1 1 18 0;
#X connect 3 0 4 0;
#X connect 5 0 4 0;
#X connect 6 0 2 0;
#X connect 6 0 70 0;
#X connect 7 0 6 0;
#X connect 8 0 5 0;
#X connect 9 0 8 0;
#X connect 10 0 19 0;
#X connect 10 0 36 0;
#X connect 11 0 31 0;
#X connect 12 0 32 0;
#X connect 13 0 21 0;
#X connect 13 0 57 0;
#X connect 14 0 35 0;
#X connect 15 0 14 0;
#X connect 15 0 27 0;
#X connect 15 0 28 0;
#X connect 16 0 30 0;
#X connect 17 0 15 0;
#X connect 18 0 15 1;
#X connect 19 0 41 0;
#X connect 20 0 42 0;
#X connect 21 0 43 0;
#X connect 22 0 23 0;
#X connect 23 0 20 0;
#X connect 24 0 64 0;
#X connect 25 0 24 0;
#X connect 26 0 25 1;
#X connect 27 0 33 0;
#X connect 28 0 34 0;
#X connect 29 0 9 0;
#X connect 30 0 10 0;
#X connect 31 0 22 0;
#X connect 32 0 37 0;
#X connect 33 0 16 0;
#X connect 34 0 11 0;
#X connect 35 0 12 0;
#X connect 36 0 52 0;
#X connect 37 0 13 0;
#X connect 38 0 39 0;
#X connect 38 0 53 0;
#X connect 39 0 26 0;
#X connect 40 0 41 1;
#X connect 40 0 42 1;
#X connect 40 0 43 1;
#X connect 41 0 29 0;
#X connect 42 0 9 1;
#X connect 43 0 9 2;
#X connect 44 0 47 0;
#X connect 44 1 48 0;
#X connect 46 0 47 1;
#X connect 46 0 48 1;
#X connect 47 0 68 0;
#X connect 48 0 67 0;
#X connect 49 0 50 0;
#X connect 50 0 67 1;
#X connect 50 0 68 1;
#X connect 51 0 4 0;
#X connect 52 0 25 0;
#X connect 53 0 52 1;
#X connect 54 0 65 0;
#X connect 55 0 54 0;
#X connect 56 0 55 1;
#X connect 57 0 60 0;
#X connect 58 0 59 0;
#X connect 58 0 61 0;
#X connect 59 0 56 0;
#X connect 60 0 55 0;
#X connect 61 0 60 1;
#X connect 62 0 17 1;
#X connect 62 0 18 1;
#X connect 62 0 69 0;
#X connect 63 0 22 1;
#X connect 63 0 37 1;
#X connect 64 0 63 0;
#X connect 65 0 66 0;
#X connect 66 0 23 1;
#X connect 67 0 45 2;
#X connect 68 0 45 3;
#X connect 70 0 4 0;
