#N canvas 0 22 450 300 10;
#X obj 19 145 0;
#X obj 20 121 +;
#X floatatom 20 76 5 0 0 0 - - -;
#X floatatom 19 171 5 0 0 0 - - -;
#X obj 19 49 inlet;
#X obj 16 193 outlet;
#X obj 20 99 *;
#X obj 57 128 *;
#X obj 100 55 inlet;
#X obj 104 105 vsl 15 50 0 1 0 0 empty empty empty 0 -9 0 10 -262144
-1 -1 4410 1;
#X floatatom 123 114 5 0 0 2 Input - -;
#X floatatom 123 145 5 0 0 2 Output - -;
#X obj 185 165 * -1;
#X obj 187 214 + 1;
#X obj 143 50 loadbang;
#X msg 145 71 0.9;
#X connect 0 0 3 0;
#X connect 0 0 7 0;
#X connect 1 0 0 0;
#X connect 2 0 6 0;
#X connect 3 0 5 0;
#X connect 4 0 2 0;
#X connect 6 0 1 0;
#X connect 7 0 1 1;
#X connect 8 0 9 0;
#X connect 9 0 12 0;
#X connect 9 0 10 0;
#X connect 10 0 6 1;
#X connect 11 0 7 1;
#X connect 12 0 13 0;
#X connect 13 0 11 0;
#X connect 14 0 15 0;
#X connect 15 0 9 0;
#X coords 0 -1 1 1 60 65 2 100 100;
