#N canvas 730 23 707 855 10;
#X obj 388 -41 inlet;
#X floatatom 408 198 5 0 0 0 - - -;
#X obj 408 173 *;
#X obj 114 141 vsl 15 30 0 2 0 0 empty empty empty 0 -9 0 10 -262144
-1 -1 1500 1;
#X obj 408 101 - 1;
#X obj 270 78 loadbang;
#X msg 270 109 1;
#X obj 110 225 iirfilter;
#X obj 388 392 outlet;
#X obj 408 139 max 0;
#X obj 468 -41 inlet;
#X floatatom 488 198 5 0 0 0 - - -;
#X obj 488 173 *;
#X obj 180 141 vsl 15 30 0 2 0 0 empty empty empty 0 -9 0 10 -262144
-1 -1 1500 1;
#X obj 488 101 - 1;
#X msg 302 109 1;
#X obj 176 225 iirfilter;
#X obj 488 139 max 0;
#X obj 548 -41 inlet;
#X floatatom 568 198 5 0 0 0 - - -;
#X obj 568 173 *;
#X obj 245 141 vsl 15 30 0 2 0 0 empty empty empty 0 -9 0 10 -262144
-1 -1 1500 1;
#X obj 568 101 - 1;
#X msg 334 109 1;
#X obj 241 225 iirfilter;
#X obj 568 139 max 0;
#X obj 333 138 vsl 15 30 0 2 0 0 empty empty empty 0 -9 0 10 -262144
-1 -1 1500 1;
#X text 123 123 Peak Sensitivity;
#X text 170 204 Peak Hold;
#X obj 333 230 vsl 15 50 0 1 0 0 empty empty empty 0 -9 0 10 -262144
-1 -1 4200 1;
#X obj 408 58 * 1.5;
#X obj 488 58 * 1.5;
#X obj 568 58 * 1.5;
#X obj 388 365 clip 0 1;
#X obj 468 -12 -;
#X obj 178 314 +;
#X obj 548 -13 -;
#X obj 468 392 outlet;
#X obj 468 365 clip 0 1;
#X obj 548 392 outlet;
#X obj 548 365 clip 0 1;
#X connect 0 0 30 0;
#X connect 0 0 33 0;
#X connect 1 0 7 0;
#X connect 2 0 1 0;
#X connect 3 0 2 1;
#X connect 4 0 9 0;
#X connect 5 0 6 0;
#X connect 5 0 15 0;
#X connect 5 0 23 0;
#X connect 6 0 3 0;
#X connect 7 0 35 0;
#X connect 7 0 36 1;
#X connect 9 0 2 0;
#X connect 10 0 34 0;
#X connect 11 0 16 0;
#X connect 12 0 11 0;
#X connect 13 0 12 1;
#X connect 14 0 17 0;
#X connect 15 0 13 0;
#X connect 17 0 12 0;
#X connect 18 0 36 0;
#X connect 19 0 24 0;
#X connect 20 0 19 0;
#X connect 21 0 20 1;
#X connect 22 0 25 0;
#X connect 23 0 21 0;
#X connect 24 0 35 1;
#X connect 25 0 20 0;
#X connect 26 0 2 1;
#X connect 26 0 12 1;
#X connect 26 0 20 1;
#X connect 26 0 3 0;
#X connect 26 0 13 0;
#X connect 26 0 21 0;
#X connect 29 0 24 1;
#X connect 29 0 16 1;
#X connect 29 0 7 1;
#X connect 30 0 4 0;
#X connect 31 0 14 0;
#X connect 32 0 22 0;
#X connect 33 0 8 0;
#X connect 34 0 31 0;
#X connect 34 0 38 0;
#X connect 35 0 34 1;
#X connect 36 0 32 0;
#X connect 36 0 40 0;
#X connect 38 0 37 0;
#X connect 40 0 39 0;
#X coords 0 -1 1 1 280 200 1 100 100;
